#!OML:ASF I:\salsa\salsa 7_09\Patient 1\Session 1\dancerfemale.ASF
:FULLY-SPECIFIED
:DEGREES
1268
root -8.5315 15.7834 -0.554771 -1850.93 109.407 668.496
lowerback 13.2107 -3.26662 -3.04217
upperback 0.93679 -5.0296 -8.45279
thorax -6.95509 -2.35625 -6.39893
lowerneck 0.257682 -3.06596 -12.2914
upperneck 27.727 -3.05857 4.52324
head 8.93881 -1.80985 3.51123
rclavicle -3.39922e-014 -9.30312e-014
rhumerus 0.617806 28.1107 -99.0773
rradius 53.3252
rwrist -2.20278
rhand -3.31682 43.9079
rfingers 7.12502
rthumb 22.4099 15.1878
lclavicle -3.39922e-014 -9.30312e-014
lhumerus 18.8349 19.8874 53.5776
lradius 82.8387
lwrist 29.2238
lhand 10.3039 44.1733
lfingers 7.12502
lthumb 35.4145 70.6316
rfemur -38.7748 -5.06633 3.64912
rtibia 45.4716
rfoot 0.120088 -4.33429
rtoes -26.056
lfemur -1.73776 10.5735 -42.8588
ltibia 19.9738
lfoot -17.9265 -19.3373
ltoes 22.113
1269
root -8.37064 15.7889 -0.563026 -1855.08 107.285 664.386
lowerback 13.1499 -2.98759 -2.88647
upperback 0.887989 -4.64327 -8.3546
thorax -6.93981 -2.17851 -6.45804
lowerneck -0.0530064 -2.62176 -11.7785
upperneck 27.7164 -2.47014 4.50511
head 8.91806 -1.49118 3.46036
rclavicle 1.03368e-014 5.48646e-014
rhumerus -0.163683 29.3197 -99.8975
rradius 53.9974
rwrist -2.61556
rhand -0.759878 44.534
rfingers 7.12502
rthumb 24.8623 16.1307
lclavicle 1.03368e-014 5.48646e-014
lhumerus 16.6203 21.6855 51.2161
lradius 84.9173
lwrist 30.0039
lhand 10.0799 44.4127
lfingers 7.12502
lthumb 35.2021 70.9213
rfemur -38.7419 -3.53547 4.78111
rtibia 45.6208
rfoot -0.962501 -2.30097
rtoes -24.0157
lfemur -1.79663 9.95155 -42.1645
ltibia 20.5646
lfoot -19.2312 -16.5925
ltoes 20.9025
1270
root -8.1867 15.7786 -0.579562 -1862.3 105.711 657.419
lowerback 13.0756 -2.63813 -3.43986
upperback 0.934457 -4.24301 -8.4013
thorax -6.7706 -1.96201 -6.2731
lowerneck -0.263271 -2.15301 -11.2641
upperneck 27.6437 -1.84064 4.39316
head 8.8582 -1.16165 3.37795
rclavicle -2.68359e-015 5.1684e-014
rhumerus -1.16233 30.6572 -100.921
rradius 54.4523
rwrist -2.74588
rhand -0.302194 45.0011
rfingers 7.12502
rthumb 25.3009 16.6591
lclavicle -2.68359e-015 5.1684e-014
lhumerus 14.1252 23.7234 48.632
lradius 86.9743
lwrist 30.5068
lhand 10.5997 44.7253
lfingers 7.12502
lthumb 35.695 71.1162
rfemur -38.3601 -2.41748 5.26711
rtibia 45.8045
rfoot -2.42885 0.767847
rtoes -26.123
lfemur -1.48414 8.92755 -42.2115
ltibia 21.3061
lfoot -20.9327 -13.1855
ltoes 19.2322
1271
root -8.00373 15.7784 -0.597123 -1870.66 103.101 649.109
lowerback 12.881 -2.25102 -2.82216
upperback 0.867191 -3.64403 -8.07722
thorax -6.69537 -1.7004 -6.38793
lowerneck -0.325039 -1.60107 -10.8074
upperneck 27.337 -1.15794 4.42988
head 8.68836 -0.798951 3.35437
rclavicle -2.11706e-014 -5.00937e-014
rhumerus -2.38014 31.9726 -102.115
rradius 54.7935
rwrist -2.78197
rhand -0.836501 45.6452
rfingers 7.12502
rthumb 24.7889 17.2317
lclavicle -2.11706e-014 -5.00937e-014
lhumerus 11.4996 25.9658 45.9447
lradius 88.9397
lwrist 30.6698
lhand 11.8335 45.3574
lfingers 7.12502
lthumb 36.8632 71.4571
rfemur -38.0974 -0.817331 7.16088
rtibia 45.8429
rfoot -4.24186 4.26824
rtoes -29.6613
lfemur -1.58492 7.56175 -41.1102
ltibia 22.3401
lfoot -22.7619 -9.43918
ltoes 18.2869
1272
root -7.81061 15.7766 -0.610729 -1883.11 100.7 636.831
lowerback 12.7923 -1.84936 -2.1531
upperback 0.834449 -3.0202 -7.66798
thorax -6.63122 -1.42572 -6.4405
lowerneck -0.333241 -1.01679 -10.4422
upperneck 27.0332 -0.464117 4.62748
head 8.51292 -0.425095 3.40023
rclavicle -1.74931e-014 -3.02153e-014
rhumerus -3.69896 33.4449 -103.215
rradius 55.079
rwrist -2.94605
rhand -1.47218 46.2669
rfingers 7.12502
rthumb 24.1796 17.7711
lclavicle -1.74931e-014 -3.02153e-014
lhumerus 8.69301 28.239 43.0235
lradius 90.7988
lwrist 31.0887
lhand 12.9867 45.8622
lfingers 7.12502
lthumb 37.9533 71.6742
rfemur -37.5546 0.799473 9.31556
rtibia 45.9939
rfoot -6.42514 8.31092
rtoes -32.8674
lfemur -1.59431 6.40744 -39.7725
ltibia 23.7432
lfoot -24.4545 -5.98116
ltoes 18.7435
1273
root -7.5998 15.7719 -0.614023 -1900.97 99.3802 619.227
lowerback 12.7053 -1.37583 -2.00908
upperback 0.809495 -2.36656 -7.32144
thorax -6.53169 -1.11407 -6.26444
lowerneck -0.41084 -0.503305 -9.97921
upperneck 26.9097 0.171688 4.6988
head 8.42213 -0.0804971 3.38441
rclavicle 1.0635e-014 1.82882e-014
rhumerus -5.10326 34.9803 -104.161
rradius 55.2954
rwrist -3.35543
rhand -1.4855 46.9812
rfingers 7.12502
rthumb 24.1668 18.4836
lclavicle 1.0635e-014 1.82882e-014
lhumerus 5.58433 30.3559 39.7811
lradius 92.6444
lwrist 31.9839
lhand 14.1357 46.0191
lfingers 7.12502
lthumb 39.0374 71.5284
rfemur -36.5994 2.32917 11.1739
rtibia 46.0159
rfoot -8.6948 11.906
rtoes -33.3881
lfemur -1.42787 5.43887 -38.761
ltibia 25.3581
lfoot -25.9891 -2.58902
ltoes 19.6835
1274
root -7.38089 15.7336 -0.60255 -1921.32 99.299 599.038
lowerback 12.5939 -0.81681 -2.1806
upperback 0.683703 -1.64779 -6.99539
thorax -6.5164 -0.760784 -5.94173
lowerneck -0.468551 -0.0683124 -9.4841
upperneck 26.8743 0.705821 4.75115
head 8.37053 0.218191 3.351
rclavicle 1.36167e-014 8.11041e-014
rhumerus -6.96185 36.298 -105.343
rradius 55.511
rwrist -3.5907
rhand -1.57334 47.9251
rfingers 7.12502
rthumb 24.0826 19.4163
lclavicle 1.36167e-014 8.11041e-014
lhumerus 2.2444 32.1867 36.3508
lradius 94.5031
lwrist 33.1253
lhand 15.0255 46.3119
lfingers 7.12502
lthumb 39.8756 71.5753
rfemur -35.5606 3.93101 12.8532
rtibia 45.9583
rfoot -10.4091 14.8774
rtoes -33.2129
lfemur -1.26122 4.60583 -37.9433
ltibia 26.9683
lfoot -27.6638 0.626929
ltoes 18.882
1275
root -7.15813 15.719 -0.588478 -1937.77 100.435 582.708
lowerback 12.4681 -0.235242 -2.6982
upperback 0.496137 -0.949892 -6.74792
thorax -6.56892 -0.406086 -5.50339
lowerneck -0.423739 0.302101 -9.1111
upperneck 26.8509 1.13919 4.88012
head 8.31465 0.465532 3.35688
rclavicle -1.99779e-014 4.77083e-015
rhumerus -9.24366 37.5192 -106.761
rradius 55.7471
rwrist -3.60066
rhand -1.91545 48.9374
rfingers 7.12502
rthumb 23.7545 20.3856
lclavicle -1.99779e-014 4.77083e-015
lhumerus -1.31086 33.7403 32.7045
lradius 96.2895
lwrist 34.2659
lhand 15.7918 46.7505
lfingers 7.12502
lthumb 40.5965 71.7938
rfemur -34.1773 5.26387 14.0904
rtibia 45.4613
rfoot -11.7501 17.363
rtoes -31.4832
lfemur -1.11485 4.05771 -37.5052
ltibia 28.5476
lfoot -29.2162 3.42483
ltoes 16.8027
1276
root -6.92796 15.7111 -0.568361 -1948.98 102.088 571.612
lowerback 12.7297 0.37252 -3.39632
upperback 0.0196898 -0.294488 -6.45754
thorax -7.17048 -0.0690332 -4.92972
lowerneck -0.216024 0.634183 -8.87432
upperneck 27.0361 1.53295 5.05133
head 8.30621 0.688884 3.40242
rclavicle 3.97569e-015 -5.40694e-014
rhumerus -12.2475 38.5316 -108.417
rradius 55.9966
rwrist -3.62752
rhand -1.80715 50.1565
rfingers 7.12502
rthumb 23.8584 21.6183
lclavicle 3.97569e-015 -5.40694e-014
lhumerus -5.36798 34.6796 28.8668
lradius 98.0872
lwrist 35.3732
lhand 16.8234 47.3289
lfingers 7.12502
lthumb 41.5651 72.063
rfemur -32.5622 6.0972 15.1759
rtibia 44.5365
rfoot -12.9589 19.5766
rtoes -28.8403
lfemur -1.18577 3.88333 -37.1953
ltibia 30.5266
lfoot -30.2723 5.76993
ltoes 14.6041
1277
root -6.68431 15.7194 -0.543356 -1957.57 103.683 563.035
lowerback 12.0193 0.924336 -3.78156
upperback 0.0967898 0.4557 -6.09122
thorax -6.64435 0.312315 -4.42317
lowerneck -0.220343 0.917287 -8.66273
upperneck 26.7442 1.84318 5.20602
head 8.17717 0.865354 3.42716
rclavicle 1.5207e-014 3.49861e-014
rhumerus -14.3549 39.6838 -109.34
rradius 56.2599
rwrist -3.85361
rhand -1.27629 51.6978
rfingers 7.12502
rthumb 24.3674 23.227
lclavicle 1.5207e-014 3.49861e-014
lhumerus -8.78454 36.0951 25.7482
lradius 99.7726
lwrist 36.3986
lhand 17.8676 47.8949
lfingers 7.12502
lthumb 42.5437 72.3001
rfemur -30.7154 6.17213 16.5666
rtibia 43.0953
rfoot -14.1767 21.5311
rtoes -26.3005
lfemur -1.56565 3.89895 -36.6047
ltibia 32.993
lfoot -30.737 7.82921
ltoes 11.5364
1278
root -6.42917 15.7231 -0.517517 -1964.34 105.077 555.916
lowerback 11.2543 1.41407 -3.81904
upperback -0.130327 1.15079 -5.61087
thorax -6.42997 0.651126 -3.9821
lowerneck -0.156064 1.08751 -8.4959
upperneck 26.6906 2.05708 5.19136
head 8.13145 0.979871 3.40314
rclavicle 3.33958e-014 1.27222e-014
rhumerus -17.1669 40.473 -110.506
rradius 56.6405
rwrist -3.90968
rhand -0.959601 53.3767
rfingers 7.12502
rthumb 24.6709 24.9471
lclavicle 3.33958e-014 1.27222e-014
lhumerus -12.3917 37.0267 22.8213
lradius 101.435
lwrist 37.6381
lhand 19.138 48.527
lfingers 7.12502
lthumb 43.7312 72.5094
rfemur -29.0869 5.10448 18.2597
rtibia 41.5351
rfoot -14.9535 23.4991
rtoes -23.9446
lfemur -2.84938 5.71001 -35.2309
ltibia 36.4631
lfoot -30.2203 7.84807
ltoes 8.12949
1279
root -6.1703 15.7255 -0.490379 -1969.71 106.134 549.858
lowerback 10.3201 1.82279 -3.54692
upperback -0.528424 1.77599 -5.11321
thorax -6.30608 0.946138 -3.67759
lowerneck 0.040178 1.11029 -8.39063
upperneck 26.7569 2.08478 5.13964
head 8.11909 0.999612 3.36835
rclavicle 2.13694e-014 4.92986e-014
rhumerus -20.1651 40.7546 -111.758
rradius 56.9435
rwrist -3.5743
rhand -0.481094 55.1205
rfingers 7.12502
rthumb 25.1295 26.7543
lclavicle 2.13694e-014 4.92986e-014
lhumerus -15.9012 37.5547 19.9793
lradius 102.998
lwrist 39.0495
lhand 20.543 49.3822
lfingers 7.12502
lthumb 45.0406 72.8658
rfemur -27.7505 2.79171 20.1458
rtibia 40.0068
rfoot -15.2962 26.148
rtoes -19.7472
lfemur -5.1157 7.64767 -33.5117
ltibia 41.1474
lfoot -28.6953 7.13776
ltoes 5.15299
1280
root -5.92484 15.7105 -0.455962 -1975.22 106.837 543.668
lowerback 9.40037 2.18292 -3.02282
upperback -0.705806 2.37958 -4.47395
thorax -5.95498 1.22647 -3.34346
lowerneck -0.0101757 1.02141 -8.33179
upperneck 26.7971 1.95805 5.15048
head 8.15119 0.946101 3.35654
rclavicle 1.98785e-015 -4.29375e-014
rhumerus -22.6202 40.9151 -112.538
rradius 57.0391
rwrist -2.70266
rhand 0.207076 57.0276
rfingers 7.12502
rthumb 25.7887 28.7555
lclavicle 1.98785e-015 -4.29375e-014
lhumerus -19.0105 38.151 17.5951
lradius 104.432
lwrist 40.3897
lhand 21.457 49.9718
lfingers 7.12502
lthumb 45.8899 73.1121
rfemur -26.5808 -0.114359 22.3455
rtibia 38.6718
rfoot -14.5337 29.4967
rtoes -16.1255
lfemur -7.93398 9.14365 -31.3777
ltibia 46.9668
lfoot -26.351 6.28856
ltoes 2.73927
1281
root -5.68605 15.7064 -0.418702 -1981.22 107.425 537.083
lowerback 8.78969 2.57151 -2.2337
upperback -0.826061 3.02886 -3.73319
thorax -5.7112 1.524 -3.0648
lowerneck -0.101357 0.865302 -8.35135
upperneck 26.7963 1.72256 5.26446
head 8.18176 0.843731 3.38604
rclavicle 1.75924e-014 -1.11319e-014
rhumerus -24.8334 40.7489 -112.977
rradius 57.2304
rwrist -1.7158
rhand 0.979585 59.0818
rfingers 7.12502
rthumb 26.5283 30.9192
lclavicle 1.75924e-014 -1.11319e-014
lhumerus -21.8154 38.5443 15.6944
lradius 105.897
lwrist 41.7621
lhand 22.0755 50.2502
lfingers 7.12502
lthumb 46.4634 73.1492
rfemur -25.3923 -2.13633 24.589
rtibia 37.4889
rfoot -13.6691 32.0558
rtoes -11.9839
lfemur -11.3987 10.9471 -28.6051
ltibia 53.6392
lfoot -21.1119 5.06131
ltoes 1.67207
